<?xml version="1.0" encoding="utf-8"?>
<!-- Generator: Adobe Illustrator 20.1.0, SVG Export Plug-In . SVG Version: 6.00 Build 0)  -->
<svg version="1.1" id="Layer_1" xmlns="http://www.w3.org/2000/svg" xmlns:xlink="http://www.w3.org/1999/xlink" x="0px" y="0px"
	 viewBox="0 0 791 95" style="enable-background:new 0 0 791 95;" xml:space="preserve">
<style type="text/css">
	.st0{fill:none;}
</style>
<g>
	<polygon points="93.2,37.9 81.3,6.8 60.5,6.8 48.5,37.9 36.6,6.8 6.6,6.8 37.9,88.4 56.2,88.4 70.9,50.9 85.6,88.4 103.8,88.4 
		135.2,6.8 105.2,6.8 	"/>
	<rect x="276.7" y="7.3" width="30.7" height="81.1"/>
	<path d="M384.6,38.7c-5-2.1-14.8-4.5-13-9c1.3-3.3,5.8-3.3,20.5,3.3l8.2-19.4c0,0-10-6.3-24.4-7.3c-5.9-0.4-21.6,0.9-28.4,12.5
		c-2.5,4.2-3.7,7.8-3.7,13.2c0,11.3,8.6,17.6,13.6,20.6c10.1,6.1,19.7,6,18.6,11.4c-1.9,8.8-20.7-3.1-25.6-5.6l-8.9,21.5
		c0,0,12.9,10.3,33.8,10.3c21.1,0,30.9-13.5,30.9-25C406,51.1,396.7,43.7,384.6,38.7z"/>
	<path d="M761.6,38.7c-5-2.1-14.8-4.5-13-9c1.3-3.3,5.8-3.3,20.5,3.3l8.2-19.4c0,0-10-6.3-24.4-7.3c-5.9-0.4-21.6,0.9-28.4,12.5
		c-2.5,4.2-3.7,7.8-3.7,13.2c0,11.3,8.6,17.6,13.6,20.6c10.1,6.1,19.7,6,18.6,11.4c-1.9,8.8-20.7-3.1-25.6-5.6l-8.9,21.5
		c0,0,12.9,10.3,33.8,10.3c21.1,0,30.9-13.5,30.9-25C783,51.1,773.6,43.7,761.6,38.7z"/>
	<polygon points="658.5,57.7 683.7,57.7 683.7,37.7 658.5,37.7 658.5,28.8 688.4,28.8 688.4,7.3 628.5,7.3 628.5,88.4 690.5,88.4 
		690.5,66.5 658.5,66.5 	"/>
	<polygon points="566.6,7.3 535.9,7.3 535.9,88.4 599.9,88.4 599.9,63.6 566.6,63.6 	"/>
	<g>
		<path d="M429.2,31.3h23.3v57.1h30.6V31.3h23.3v-24h-77.3v24H429.2z"/>
	</g>
	<polygon points="210,34.7 188.8,34.7 188.8,7.3 160.2,7.3 160.2,88.4 188.8,88.4 188.8,59.6 210,59.6 210,88.4 238.6,88.4 
		238.6,7.3 210,7.3 	"/>
</g>
<rect id="_x3C_Slice_x3E_" class="st0" width="791" height="95"/>
</svg>
