<svg width="16" height="24" viewBox="0 0 16 24" fill="none" xmlns="http://www.w3.org/2000/svg">
<circle cx="8" cy="8.5" r="3" stroke="black"/>
<circle cx="8" cy="8.5" r="3" stroke="black" stroke-opacity="0.2"/>
<circle cx="8" cy="8.5" r="3" stroke="black" stroke-opacity="0.2"/>
<path d="M1.76421 12.7245C-0.106293 9.5252 0.288863 6.6139 1.71516 4.49628C3.16207 2.34805 5.68031 1 8.07287 1C10.4141 1 12.9074 2.34558 14.329 4.49297C15.73 6.60933 16.0999 9.52178 14.171 12.7249L8.06616 22.5626L1.76421 12.7245Z" stroke="black"/>
<path d="M1.76421 12.7245C-0.106293 9.5252 0.288863 6.6139 1.71516 4.49628C3.16207 2.34805 5.68031 1 8.07287 1C10.4141 1 12.9074 2.34558 14.329 4.49297C15.73 6.60933 16.0999 9.52178 14.171 12.7249L8.06616 22.5626L1.76421 12.7245Z" stroke="black" stroke-opacity="0.2"/>
<path d="M1.76421 12.7245C-0.106293 9.5252 0.288863 6.6139 1.71516 4.49628C3.16207 2.34805 5.68031 1 8.07287 1C10.4141 1 12.9074 2.34558 14.329 4.49297C15.73 6.60933 16.0999 9.52178 14.171 12.7249L8.06616 22.5626L1.76421 12.7245Z" stroke="black" stroke-opacity="0.2"/>
</svg>
