<svg width="19" height="20" viewBox="0 0 19 20" fill="none" xmlns="http://www.w3.org/2000/svg">
<path d="M8.00426 16.4816C6.92624 16.4816 5.90213 16.2794 4.93191 15.8752C3.9617 15.4709 3.09929 14.8915 2.34468 14.1369C1.59007 13.3823 1.01064 12.5199 0.606383 11.5496C0.202128 10.5794 0 9.5643 0 8.50426C0 7.42624 0.202128 6.40213 0.606383 5.43192C1.01064 4.4617 1.59007 3.59929 2.34468 2.84468C3.09929 2.09007 3.9617 1.51064 4.93191 1.10638C5.90213 0.702127 6.92624 0.5 8.00426 0.5C9.0643 0.5 10.0794 0.702127 11.0496 1.10638C12.0199 1.51064 12.8823 2.09007 13.6369 2.84468C14.3915 3.59929 14.9709 4.4617 15.3752 5.43192C15.7794 6.40213 15.9816 7.42624 15.9816 8.50426C15.9816 9.5643 15.7794 10.5794 15.3752 11.5496C14.9709 12.5199 14.3915 13.3823 13.6369 14.1369C12.8823 14.8915 12.0199 15.4709 11.0496 15.8752C10.0794 16.2794 9.0643 16.4816 8.00426 16.4816ZM8.00426 1.95532C7.12388 1.95532 6.28842 2.12151 5.49787 2.4539C4.70733 2.78629 3.99764 3.25792 3.36879 3.86879C2.75792 4.49764 2.28629 5.20733 1.9539 5.99787C1.62151 6.78842 1.45532 7.62388 1.45532 8.50426C1.45532 9.36667 1.62151 10.1976 1.9539 10.9972C2.28629 11.7967 2.75792 12.5019 3.36879 13.1128C3.99764 13.7416 4.70733 14.2177 5.49787 14.5411C6.28842 14.8645 7.12388 15.0262 8.00426 15.0262C8.86667 15.0262 9.69764 14.8645 10.4972 14.5411C11.2967 14.2177 12.0019 13.7416 12.6128 13.1128C13.2416 12.5019 13.7177 11.7967 14.0411 10.9972C14.3645 10.1976 14.5262 9.36667 14.5262 8.50426C14.5262 7.62388 14.3645 6.78842 14.0411 5.99787C13.7177 5.20733 13.2416 4.49764 12.6128 3.86879C12.0019 3.25792 11.2967 2.78629 10.4972 2.4539C9.69764 2.12151 8.86667 1.95532 8.00426 1.95532ZM18.2723 19.5C18.1825 19.5 18.0927 19.482 18.0028 19.4461C17.913 19.4102 17.8322 19.3563 17.7603 19.2844L12.6128 14.1369C12.469 13.9931 12.3972 13.8225 12.3972 13.6248C12.3972 13.4272 12.469 13.2565 12.6128 13.1128C12.7565 12.969 12.9272 12.8972 13.1248 12.8972C13.3225 12.8972 13.4931 12.969 13.6369 13.1128L18.7844 18.2603C18.9281 18.404 19 18.5747 19 18.7723C19 18.97 18.9281 19.1407 18.7844 19.2844C18.7125 19.3563 18.6317 19.4102 18.5418 19.4461C18.452 19.482 18.3622 19.5 18.2723 19.5Z" fill="black"/>
</svg>
